<svg width="70" height="70" viewBox="0 0 70 70" fill="none" xmlns="http://www.w3.org/2000/svg">
<g clip-path="url(#clip0_4845_175)">
<path d="M66.7612 70H3.24173C1.4507 70 0 68.5493 0 66.7612V3.24173C0 1.4507 1.4507 0 3.24173 0H66.7612C68.5522 0 70.0029 1.4507 70.0029 3.24173V66.7612C70 68.5493 68.5493 70 66.7612 70Z" fill="#503384"/>
<path d="M41.7126 51.9377V52.6731C41.7126 54.2334 40.5936 55.4967 39.215 55.4967H17.0074C15.6288 55.4967 14.5098 54.2334 14.5098 52.6731V17.3313C14.5098 15.771 15.6288 14.5078 17.0074 14.5078H38.4882C39.8668 14.5078 40.9858 15.771 40.9858 17.3313V18.0668C40.9858 19.6271 39.8668 20.8903 38.4882 20.8903H23.7418C22.3632 20.8903 21.2441 22.1536 21.2441 23.7139V28.7235C21.2441 30.2838 22.3632 31.5471 23.7418 31.5471H36.2588C37.6374 31.5471 38.7564 32.8103 38.7564 34.3706V34.9878C38.7564 36.5481 37.6374 37.8114 36.2588 37.8114H23.7418C22.3632 37.8114 21.2441 39.0746 21.2441 40.6349V46.2906C21.2441 47.8509 22.3632 49.1141 23.7418 49.1141H39.2121C40.5936 49.1141 41.7126 50.3774 41.7126 51.9377Z" fill="white" stroke="white" stroke-width="2" stroke-miterlimit="10"/>
<path d="M52.2974 56.3468C55.3493 56.3468 57.8234 53.8727 57.8234 50.8209C57.8234 47.769 55.3493 45.2949 52.2974 45.2949C49.2455 45.2949 46.7715 47.769 46.7715 50.8209C46.7715 53.8727 49.2455 56.3468 52.2974 56.3468Z" fill="#EADF61"/>
<path d="M57.3595 18.7159V34.6332C57.3595 37.4279 55.0926 39.6948 52.2979 39.6948C49.5032 39.6948 47.2363 37.4279 47.2363 34.6332V18.7159C47.2363 15.9212 49.5032 13.6543 52.2979 13.6543C55.0955 13.6543 57.3595 15.9183 57.3595 18.7159Z" fill="#CCCCCC"/>
</g>
<defs>
<clipPath id="clip0_4845_175">
<rect width="70" height="70" fill="white"/>
</clipPath>
</defs>
</svg>
