<svg width="162" height="36" viewBox="0 0 162 36" fill="none" xmlns="http://www.w3.org/2000/svg">
<g clip-path="url(#clip0_308_1661)">
<circle cx="16" cy="18" r="16" fill="#2670FF"/>
<mask id="path-2-inside-1_308_1661" fill="white">
<path d="M16 30C18.6652 30 21.3304 27.8953 23.0607 26.179C23.4599 25.7831 22.9792 25.2122 22.4822 25.4749C20.6013 26.469 18.0181 27.6 16 27.6C13.9819 27.6 11.3987 26.469 9.5178 25.4749C9.02076 25.2122 8.54012 25.7831 8.93926 26.179C10.6696 27.8953 13.3348 30 16 30Z"/>
</mask>
<path d="M23.0607 26.179L25.1734 28.3089V28.3089L23.0607 26.179ZM8.93926 26.179L6.82658 28.3089H6.82658L8.93926 26.179ZM9.5178 25.4749L10.9197 22.8226L10.9197 22.8226L9.5178 25.4749ZM22.4822 25.4749L21.0803 22.8226L21.0803 22.8226L22.4822 25.4749ZM20.948 24.0491C20.1783 24.8126 19.2652 25.5953 18.3201 26.1712C17.3491 26.7627 16.5672 27 16 27V33C18.098 33 19.9813 32.1849 21.4419 31.2951C22.9282 30.3895 24.2129 29.2616 25.1734 28.3089L20.948 24.0491ZM16 27C15.4328 27 14.6509 26.7627 13.6799 26.1712C12.7348 25.5953 11.8217 24.8126 11.052 24.0491L6.82658 28.3089C7.78708 29.2616 9.07177 30.3895 10.5581 31.2951C12.0187 32.1849 13.902 33 16 33V27ZM8.11593 28.1272C9.1314 28.6639 10.3827 29.2629 11.6934 29.7336C12.967 30.1911 14.4921 30.6 16 30.6V24.6C15.4899 24.6 14.7143 24.4434 13.7216 24.0868C12.7658 23.7436 11.7851 23.28 10.9197 22.8226L8.11593 28.1272ZM16 30.6C17.5079 30.6 19.033 30.1911 20.3066 29.7336C21.6173 29.2629 22.8686 28.6639 23.8841 28.1272L21.0803 22.8226C20.2149 23.28 19.2342 23.7436 18.2785 24.0868C17.2857 24.4434 16.5101 24.6 16 24.6V30.6ZM25.1734 28.3089C25.7674 27.7197 26.1776 26.8995 26.2071 25.9593C26.2356 25.0551 25.905 24.2526 25.4152 23.663C24.4114 22.4547 22.6321 22.0024 21.0803 22.8226L23.8841 28.1272C22.8293 28.6847 21.5389 28.3865 20.7999 27.4969C20.4425 27.0667 20.1883 26.4648 20.2101 25.7708C20.2331 25.0407 20.5536 24.4403 20.948 24.0491L25.1734 28.3089ZM11.052 24.0491C11.4464 24.4403 11.7669 25.0407 11.7899 25.7708C11.8117 26.4648 11.5575 27.0667 11.2001 27.4969C10.4611 28.3865 9.17068 28.6847 8.11593 28.1272L10.9197 22.8226C9.36787 22.0024 7.5886 22.4547 6.58483 23.663C6.09504 24.2526 5.76443 25.0551 5.79286 25.9593C5.82241 26.8995 6.23259 27.7197 6.82658 28.3089L11.052 24.0491Z" fill="white" mask="url(#path-2-inside-1_308_1661)"/>
<circle cx="15.8055" cy="16.1946" r="7.49047" transform="rotate(-90 15.8055 16.1946)" stroke="white" strokeWidth="2" strokeLinecap="round" strokeLinejoin="round"/>
<path d="M21.4043 10.9849L24.3334 8.04817" stroke="white" strokeWidth="2" strokeLinecap="round" strokeLinejoin="round"/>
</g>
<path d="M41.512 27V10.2H54.496V13.224H44.992V17.184H51.304V20.112H44.992V27H41.512ZM55.1888 27V14.496H58.4768V15.888C58.8768 15.344 59.3568 14.928 59.9168 14.64C60.4768 14.352 61.1088 14.208 61.8128 14.208C62.4208 14.224 62.8768 14.32 63.1808 14.496V17.376C62.9408 17.264 62.6768 17.184 62.3888 17.136C62.1008 17.072 61.8048 17.04 61.5008 17.04C60.8608 17.04 60.2768 17.2 59.7488 17.52C59.2208 17.84 58.7968 18.296 58.4768 18.888V27H55.1888ZM70.3735 27.24C69.1255 27.24 67.9895 26.952 66.9655 26.376C65.9575 25.8 65.1575 25.024 64.5655 24.048C63.9735 23.072 63.6775 21.976 63.6775 20.76C63.6775 19.544 63.9575 18.448 64.5175 17.472C65.0935 16.496 65.8695 15.72 66.8455 15.144C67.8215 14.568 68.9095 14.28 70.1095 14.28C71.3095 14.28 72.3735 14.576 73.3015 15.168C74.2295 15.76 74.9575 16.56 75.4855 17.568C76.0295 18.576 76.3015 19.72 76.3015 21V21.864H67.0375C67.1815 22.36 67.4135 22.808 67.7335 23.208C68.0695 23.608 68.4775 23.92 68.9575 24.144C69.4535 24.368 69.9815 24.48 70.5415 24.48C71.1015 24.48 71.6135 24.392 72.0775 24.216C72.5575 24.04 72.9655 23.792 73.3015 23.472L75.4615 25.44C74.6935 26.064 73.9015 26.52 73.0855 26.808C72.2855 27.096 71.3815 27.24 70.3735 27.24ZM66.9895 19.512H73.0615C72.9495 19.016 72.7415 18.584 72.4375 18.216C72.1495 17.832 71.7975 17.536 71.3815 17.328C70.9815 17.104 70.5335 16.992 70.0375 16.992C69.5255 16.992 69.0615 17.096 68.6455 17.304C68.2295 17.512 67.8775 17.808 67.5895 18.192C67.3175 18.56 67.1175 19 66.9895 19.512ZM82.8732 27.24C81.7212 27.24 80.6572 27.096 79.6812 26.808C78.7052 26.504 77.8572 26.072 77.1372 25.512L78.7692 23.328C79.4892 23.808 80.1772 24.168 80.8332 24.408C81.5052 24.648 82.1692 24.768 82.8252 24.768C83.5612 24.768 84.1452 24.648 84.5772 24.408C85.0252 24.152 85.2492 23.824 85.2492 23.424C85.2492 23.104 85.1212 22.848 84.8652 22.656C84.6252 22.464 84.2332 22.328 83.6892 22.248L81.2892 21.888C80.0412 21.696 79.0972 21.296 78.4572 20.688C77.8172 20.064 77.4972 19.248 77.4972 18.24C77.4972 17.424 77.7052 16.728 78.1212 16.152C78.5532 15.56 79.1532 15.104 79.9212 14.784C80.7052 14.448 81.6332 14.28 82.7052 14.28C83.6172 14.28 84.5052 14.408 85.3692 14.664C86.2492 14.92 87.0732 15.312 87.8412 15.84L86.2572 17.976C85.5692 17.544 84.9132 17.232 84.2892 17.04C83.6652 16.848 83.0332 16.752 82.3932 16.752C81.8012 16.752 81.3212 16.864 80.9532 17.088C80.6012 17.312 80.4252 17.608 80.4252 17.976C80.4252 18.312 80.5532 18.576 80.8092 18.768C81.0652 18.96 81.5052 19.096 82.1292 19.176L84.5052 19.536C85.7532 19.712 86.7052 20.112 87.3612 20.736C88.0172 21.344 88.3452 22.136 88.3452 23.112C88.3452 23.912 88.1052 24.624 87.6252 25.248C87.1452 25.856 86.4972 26.344 85.6812 26.712C84.8652 27.064 83.9292 27.24 82.8732 27.24ZM89.7423 27V10.2L93.0303 9.48V15.528C93.9743 14.68 95.1423 14.256 96.5343 14.256C97.5103 14.256 98.3663 14.472 99.1023 14.904C99.8543 15.32 100.438 15.904 100.854 16.656C101.27 17.392 101.478 18.256 101.478 19.248V27H98.1903V19.728C98.1903 18.912 97.9583 18.272 97.4943 17.808C97.0303 17.328 96.3983 17.088 95.5983 17.088C95.0383 17.088 94.5423 17.2 94.1103 17.424C93.6783 17.632 93.3183 17.936 93.0303 18.336V27H89.7423ZM103.729 27V14.496H107.017V15.456C107.913 14.656 109.001 14.256 110.281 14.256C111.097 14.256 111.825 14.424 112.465 14.76C113.105 15.08 113.633 15.536 114.049 16.128C114.561 15.52 115.161 15.056 115.849 14.736C116.553 14.416 117.329 14.256 118.177 14.256C119.121 14.256 119.945 14.472 120.649 14.904C121.369 15.32 121.929 15.904 122.329 16.656C122.745 17.392 122.953 18.256 122.953 19.248V27H119.689V19.728C119.689 18.912 119.473 18.272 119.041 17.808C118.609 17.328 118.033 17.088 117.313 17.088C116.817 17.088 116.361 17.192 115.945 17.4C115.545 17.608 115.201 17.92 114.913 18.336C114.929 18.48 114.945 18.624 114.961 18.768C114.977 18.912 114.985 19.072 114.985 19.248V27H111.697V19.728C111.697 18.912 111.481 18.272 111.049 17.808C110.633 17.328 110.065 17.088 109.345 17.088C108.849 17.088 108.401 17.184 108.001 17.376C107.617 17.568 107.289 17.856 107.017 18.24V27H103.729ZM131.335 27.24C130.087 27.24 128.951 26.952 127.927 26.376C126.919 25.8 126.119 25.024 125.527 24.048C124.935 23.072 124.639 21.976 124.639 20.76C124.639 19.544 124.919 18.448 125.479 17.472C126.055 16.496 126.831 15.72 127.807 15.144C128.783 14.568 129.871 14.28 131.071 14.28C132.271 14.28 133.335 14.576 134.263 15.168C135.191 15.76 135.919 16.56 136.447 17.568C136.991 18.576 137.263 19.72 137.263 21V21.864H127.999C128.143 22.36 128.375 22.808 128.695 23.208C129.031 23.608 129.439 23.92 129.919 24.144C130.415 24.368 130.943 24.48 131.503 24.48C132.063 24.48 132.575 24.392 133.039 24.216C133.519 24.04 133.927 23.792 134.263 23.472L136.423 25.44C135.655 26.064 134.863 26.52 134.047 26.808C133.247 27.096 132.343 27.24 131.335 27.24ZM127.951 19.512H134.023C133.911 19.016 133.703 18.584 133.399 18.216C133.111 17.832 132.759 17.536 132.343 17.328C131.943 17.104 131.495 16.992 130.999 16.992C130.487 16.992 130.023 17.096 129.607 17.304C129.191 17.512 128.839 17.808 128.551 18.192C128.279 18.56 128.079 19 127.951 19.512ZM139.038 27V14.496H142.326V15.528C143.27 14.68 144.438 14.256 145.83 14.256C146.806 14.256 147.662 14.472 148.398 14.904C149.15 15.32 149.734 15.904 150.15 16.656C150.566 17.392 150.774 18.256 150.774 19.248V27H147.486V19.728C147.486 18.912 147.254 18.272 146.79 17.808C146.326 17.328 145.694 17.088 144.894 17.088C144.334 17.088 143.838 17.2 143.406 17.424C142.974 17.632 142.614 17.936 142.326 18.336V27H139.038ZM158.601 27.192C157.209 27.192 156.153 26.88 155.433 26.256C154.729 25.616 154.377 24.688 154.377 23.472V17.232H151.809V14.496H154.377V11.304L157.665 10.56V14.496H161.241V17.232H157.665V22.8C157.665 23.376 157.793 23.792 158.049 24.048C158.305 24.288 158.753 24.408 159.393 24.408C159.713 24.408 160.001 24.392 160.257 24.36C160.529 24.312 160.825 24.232 161.145 24.12V26.832C160.809 26.944 160.385 27.032 159.873 27.096C159.377 27.16 158.953 27.192 158.601 27.192Z" fill="#25324B"/>
<g clip-path="url(#clip1_308_1661)">
<circle cx="16" cy="18" r="16" fill="#2670FF"/>
<path d="M10 26.8V13C10 11.3431 11.3431 10 13 10H22.984C22.984 11.6701 21.6301 13.024 19.96 13.024H13.48V16.984H16.864C18.4811 16.984 19.792 18.2949 19.792 19.912H13.48V23.32C13.48 25.242 11.922 26.8 10 26.8Z" fill="#F8F8FD"/>
</g>
<path d="M41.512 27V10.2H54.496V13.224H44.992V17.184H51.304V20.112H44.992V27H41.512ZM55.1888 27V14.496H58.4768V15.888C58.8768 15.344 59.3568 14.928 59.9168 14.64C60.4768 14.352 61.1088 14.208 61.8128 14.208C62.4208 14.224 62.8768 14.32 63.1808 14.496V17.376C62.9408 17.264 62.6768 17.184 62.3888 17.136C62.1008 17.072 61.8048 17.04 61.5008 17.04C60.8608 17.04 60.2768 17.2 59.7488 17.52C59.2208 17.84 58.7968 18.296 58.4768 18.888V27H55.1888ZM70.3735 27.24C69.1255 27.24 67.9895 26.952 66.9655 26.376C65.9575 25.8 65.1575 25.024 64.5655 24.048C63.9735 23.072 63.6775 21.976 63.6775 20.76C63.6775 19.544 63.9575 18.448 64.5175 17.472C65.0935 16.496 65.8695 15.72 66.8455 15.144C67.8215 14.568 68.9095 14.28 70.1095 14.28C71.3095 14.28 72.3735 14.576 73.3015 15.168C74.2295 15.76 74.9575 16.56 75.4855 17.568C76.0295 18.576 76.3015 19.72 76.3015 21V21.864H67.0375C67.1815 22.36 67.4135 22.808 67.7335 23.208C68.0695 23.608 68.4775 23.92 68.9575 24.144C69.4535 24.368 69.9815 24.48 70.5415 24.48C71.1015 24.48 71.6135 24.392 72.0775 24.216C72.5575 24.04 72.9655 23.792 73.3015 23.472L75.4615 25.44C74.6935 26.064 73.9015 26.52 73.0855 26.808C72.2855 27.096 71.3815 27.24 70.3735 27.24ZM66.9895 19.512H73.0615C72.9495 19.016 72.7415 18.584 72.4375 18.216C72.1495 17.832 71.7975 17.536 71.3815 17.328C70.9815 17.104 70.5335 16.992 70.0375 16.992C69.5255 16.992 69.0615 17.096 68.6455 17.304C68.2295 17.512 67.8775 17.808 67.5895 18.192C67.3175 18.56 67.1175 19 66.9895 19.512ZM82.8732 27.24C81.7212 27.24 80.6572 27.096 79.6812 26.808C78.7052 26.504 77.8572 26.072 77.1372 25.512L78.7692 23.328C79.4892 23.808 80.1772 24.168 80.8332 24.408C81.5052 24.648 82.1692 24.768 82.8252 24.768C83.5612 24.768 84.1452 24.648 84.5772 24.408C85.0252 24.152 85.2492 23.824 85.2492 23.424C85.2492 23.104 85.1212 22.848 84.8652 22.656C84.6252 22.464 84.2332 22.328 83.6892 22.248L81.2892 21.888C80.0412 21.696 79.0972 21.296 78.4572 20.688C77.8172 20.064 77.4972 19.248 77.4972 18.24C77.4972 17.424 77.7052 16.728 78.1212 16.152C78.5532 15.56 79.1532 15.104 79.9212 14.784C80.7052 14.448 81.6332 14.28 82.7052 14.28C83.6172 14.28 84.5052 14.408 85.3692 14.664C86.2492 14.92 87.0732 15.312 87.8412 15.84L86.2572 17.976C85.5692 17.544 84.9132 17.232 84.2892 17.04C83.6652 16.848 83.0332 16.752 82.3932 16.752C81.8012 16.752 81.3212 16.864 80.9532 17.088C80.6012 17.312 80.4252 17.608 80.4252 17.976C80.4252 18.312 80.5532 18.576 80.8092 18.768C81.0652 18.96 81.5052 19.096 82.1292 19.176L84.5052 19.536C85.7532 19.712 86.7052 20.112 87.3612 20.736C88.0172 21.344 88.3452 22.136 88.3452 23.112C88.3452 23.912 88.1052 24.624 87.6252 25.248C87.1452 25.856 86.4972 26.344 85.6812 26.712C84.8652 27.064 83.9292 27.24 82.8732 27.24ZM89.7423 27V10.2L93.0303 9.48V15.528C93.9743 14.68 95.1423 14.256 96.5343 14.256C97.5103 14.256 98.3663 14.472 99.1023 14.904C99.8543 15.32 100.438 15.904 100.854 16.656C101.27 17.392 101.478 18.256 101.478 19.248V27H98.1903V19.728C98.1903 18.912 97.9583 18.272 97.4943 17.808C97.0303 17.328 96.3983 17.088 95.5983 17.088C95.0383 17.088 94.5423 17.2 94.1103 17.424C93.6783 17.632 93.3183 17.936 93.0303 18.336V27H89.7423ZM103.729 27V14.496H107.017V15.456C107.913 14.656 109.001 14.256 110.281 14.256C111.097 14.256 111.825 14.424 112.465 14.76C113.105 15.08 113.633 15.536 114.049 16.128C114.561 15.52 115.161 15.056 115.849 14.736C116.553 14.416 117.329 14.256 118.177 14.256C119.121 14.256 119.945 14.472 120.649 14.904C121.369 15.32 121.929 15.904 122.329 16.656C122.745 17.392 122.953 18.256 122.953 19.248V27H119.689V19.728C119.689 18.912 119.473 18.272 119.041 17.808C118.609 17.328 118.033 17.088 117.313 17.088C116.817 17.088 116.361 17.192 115.945 17.4C115.545 17.608 115.201 17.92 114.913 18.336C114.929 18.48 114.945 18.624 114.961 18.768C114.977 18.912 114.985 19.072 114.985 19.248V27H111.697V19.728C111.697 18.912 111.481 18.272 111.049 17.808C110.633 17.328 110.065 17.088 109.345 17.088C108.849 17.088 108.401 17.184 108.001 17.376C107.617 17.568 107.289 17.856 107.017 18.24V27H103.729ZM131.335 27.24C130.087 27.24 128.951 26.952 127.927 26.376C126.919 25.8 126.119 25.024 125.527 24.048C124.935 23.072 124.639 21.976 124.639 20.76C124.639 19.544 124.919 18.448 125.479 17.472C126.055 16.496 126.831 15.72 127.807 15.144C128.783 14.568 129.871 14.28 131.071 14.28C132.271 14.28 133.335 14.576 134.263 15.168C135.191 15.76 135.919 16.56 136.447 17.568C136.991 18.576 137.263 19.72 137.263 21V21.864H127.999C128.143 22.36 128.375 22.808 128.695 23.208C129.031 23.608 129.439 23.92 129.919 24.144C130.415 24.368 130.943 24.48 131.503 24.48C132.063 24.48 132.575 24.392 133.039 24.216C133.519 24.04 133.927 23.792 134.263 23.472L136.423 25.44C135.655 26.064 134.863 26.52 134.047 26.808C133.247 27.096 132.343 27.24 131.335 27.24ZM127.951 19.512H134.023C133.911 19.016 133.703 18.584 133.399 18.216C133.111 17.832 132.759 17.536 132.343 17.328C131.943 17.104 131.495 16.992 130.999 16.992C130.487 16.992 130.023 17.096 129.607 17.304C129.191 17.512 128.839 17.808 128.551 18.192C128.279 18.56 128.079 19 127.951 19.512ZM139.038 27V14.496H142.326V15.528C143.27 14.68 144.438 14.256 145.83 14.256C146.806 14.256 147.662 14.472 148.398 14.904C149.15 15.32 149.734 15.904 150.15 16.656C150.566 17.392 150.774 18.256 150.774 19.248V27H147.486V19.728C147.486 18.912 147.254 18.272 146.79 17.808C146.326 17.328 145.694 17.088 144.894 17.088C144.334 17.088 143.838 17.2 143.406 17.424C142.974 17.632 142.614 17.936 142.326 18.336V27H139.038ZM158.601 27.192C157.209 27.192 156.153 26.88 155.433 26.256C154.729 25.616 154.377 24.688 154.377 23.472V17.232H151.809V14.496H154.377V11.304L157.665 10.56V14.496H161.241V17.232H157.665V22.8C157.665 23.376 157.793 23.792 158.049 24.048C158.305 24.288 158.753 24.408 159.393 24.408C159.713 24.408 160.001 24.392 160.257 24.36C160.529 24.312 160.825 24.232 161.145 24.12V26.832C160.809 26.944 160.385 27.032 159.873 27.096C159.377 27.16 158.953 27.192 158.601 27.192Z" fill="#25324B"/>
<defs>
<clipPath id="clip0_308_1661">
<rect width="32" height="32" fill="white" transform="translate(0 2)"/>
</clipPath>
<clipPath id="clip1_308_1661">
<rect width="32" height="32" fill="white" transform="translate(0 2)"/>
</clipPath>
</defs>
</svg>
