<svg width="91" height="48" viewBox="0 0 91 48" fill="none" xmlns="http://www.w3.org/2000/svg">
<g id="logo">
<path id="Vector" d="M4.10529 14.8777C4.63935 16.7185 5.94798 17.7285 7.88036 17.7285C9.51514 17.7285 11.0032 17.1339 11.0032 15.5904C11.0032 14.7881 10.5588 14.0469 8.59379 13.3627L6.33527 12.589C1.72854 11.017 1.04365 8.13775 1.04365 6.41508C1.04365 2.67247 3.98706 0.355225 8.05974 0.355225C11.2681 0.355225 13.7672 1.8987 15.0147 4.90012L11.2681 6.76939C10.3753 4.65984 8.91994 4.42364 8.05974 4.42364C6.63288 4.42364 5.53215 4.98971 5.53215 6.354C5.53215 6.88749 5.68299 7.86896 7.76214 8.58165L9.95951 9.35542C14.6274 10.8093 15.459 13.603 15.4876 15.5008C15.4876 19.8665 11.684 21.7969 8.02713 21.7969C4.04414 21.7969 0.419906 19.5407 0 15.68L4.10121 14.8777H4.10529Z" fill="#6622CB"/>
<path id="Vector_2" d="M25.5654 5.91089C30.0254 5.91089 33.9472 9.11594 33.9472 13.84C33.9472 18.5641 30.0254 21.7977 25.5654 21.7977C21.1054 21.7977 17.1836 18.6211 17.1836 13.84C17.1836 9.05892 21.138 5.91089 25.5654 5.91089ZM25.5654 17.994C27.7668 17.994 29.6381 16.2143 29.6381 13.8359C29.6381 11.4576 27.7668 9.71052 25.5654 9.71052C23.364 9.71052 21.4927 11.4617 21.4927 13.8359C21.4927 16.2102 23.3966 17.994 25.5654 17.994Z" fill="#6622CB"/>
<path id="Vector_3" d="M36.4062 21.4661V0H40.8336V21.4661H36.4062Z" fill="#6622CB"/>
<path id="Vector_4" d="M58.6747 21.4677H54.2473V19.3907C52.9713 21.1704 51.3651 21.7975 49.5224 21.7975C45.2418 21.7975 44.084 18.3848 44.084 14.5241V6.23657H48.5113V14.4304C48.5113 16.54 49.2859 18.1405 51.3365 18.1405C53.3871 18.1405 54.2473 16.5074 54.2473 14.3978V6.23657H58.6747V21.4677Z" fill="#6622CB"/>
<path id="Vector_5" d="M67.5251 9.70985V16.8367C67.5251 17.4883 67.7942 18.1725 68.6544 18.1725C69.5146 18.1725 69.8122 17.4598 69.8122 16.7471C69.8122 16.3032 69.694 15.6801 69.6043 15.4398H73.1103C73.3793 16.0018 73.469 16.7145 73.469 17.2521C73.469 19.5083 71.981 21.7929 68.3853 21.7929C65.711 21.7929 63.0937 20.844 63.0937 16.4172V9.70985H60.8066V6.23602H63.4239L64.1088 2.49341H67.5251V6.23602" fill="#6622CB"/>
<path id="Vector_6" d="M90.1116 18.7931C87.9428 21.1673 85.0605 21.7904 83.0099 21.7904C77.3636 21.7904 74.2734 18.2555 74.2734 13.9224C74.2734 9.58924 77.7794 5.90771 82.6838 5.90771C86.9032 5.90771 90.9474 8.81547 90.9474 14.8753H78.6723C78.7619 16.7772 80.5149 18.17 83.3401 18.17C84.9138 18.17 86.4915 17.3677 87.5596 16.3577L90.1157 18.7931H90.1116ZM78.7579 12.1997H86.3977C86.1001 10.2408 84.1106 9.49965 82.6226 9.49965C81.1346 9.49965 79.2919 10.1512 78.7579 12.1997Z" fill="#6622CB"/>
<path id="Vector_7" d="M15.3528 44.0195V47.6725H1.5V26.8906H6.11081V44.0236H15.3528V44.0195Z" fill="#6622CB"/>
<path id="Vector_8" d="M33.0663 32.4398V47.6709H28.6389V45.4433C27.5382 47.0152 26.0828 47.9967 23.8528 47.9967C19.2176 47.9967 16.4209 44.4333 16.4209 39.9821C16.4209 35.5308 19.0056 32.114 23.7631 32.114C25.8137 32.114 27.5994 33.124 28.6389 34.5209V32.4439H33.0663V32.4398ZM24.7742 44.4048C26.943 44.4048 28.7572 43.0079 28.7572 40.2468C28.7572 37.4856 27.0612 35.7059 24.6559 35.7059C22.2507 35.7059 20.8523 37.6648 20.8523 40.0106C20.8523 42.3563 22.3403 44.4048 24.7742 44.4048Z" fill="#6622CB"/>
<path id="Vector_9" d="M45.6402 47.9982C43.4102 47.9982 41.9548 47.0167 40.8541 45.4447V47.6724H36.4268V26.2063H40.8541V34.5182C41.8937 33.1214 43.6793 32.1114 45.7299 32.1114C50.4875 32.1114 53.0721 35.7033 53.0721 39.9794C53.0721 44.2556 50.2796 47.9941 45.6402 47.9941V47.9982ZM44.8371 35.7074C42.4277 35.7074 40.7359 37.4301 40.7359 40.2482C40.7359 43.0664 42.55 44.4062 44.7189 44.4062C47.1568 44.4062 48.6407 42.4474 48.6407 40.012C48.6407 37.5767 47.275 35.7074 44.8371 35.7074Z" fill="#6622CB"/>
<path id="Vector_10" d="M57.5523 42.3025C57.9967 44.0536 59.5418 44.5871 60.7607 44.5871C61.7432 44.5871 62.7502 44.2003 62.7502 43.4306C62.7502 42.9256 62.4526 42.5713 61.6209 42.274L58.9466 41.1459C55.3223 39.8671 55.143 37.4644 55.143 36.7802C55.143 33.7217 57.8458 32.1172 61.1154 32.1172C62.8684 32.1172 65.1881 32.5937 66.6149 35.3222L63.1986 36.8942C62.8113 35.6765 61.7147 35.4403 61.0298 35.4403C60.1981 35.4403 59.3339 35.9168 59.3339 36.6865C59.3339 37.3381 59.9861 37.6965 60.7607 37.9938L63.0478 38.8857C66.6435 39.9241 66.9696 42.2699 66.9696 43.2799C66.9696 46.3994 64.0874 47.9999 60.7281 47.9999C58.4696 47.9999 55.3794 47.2872 54.3398 44.1107L57.5482 42.2984L57.5523 42.3025Z" fill="#6622CB"/>
<path id="Vector_11" d="M69.7344 43.9294H90.8112V47.9979H69.7344V43.9294Z" fill="#6622CB"/>
<path id="Vector_12" d="M72.6231 6.23657H68.7217V9.7104H72.6231V6.23657Z" fill="#6622CB"/>
</g>
</svg>
